<svg xmlns="http://www.w3.org/2000/svg" width="96" height="96" viewBox="0 0 96 96" fill="none">
  <rect width="96" height="96" rx="24" fill="url(#bg)"/>
  <rect x="14" y="18" width="68" height="60" rx="14" fill="#07111F" stroke="url(#stroke)" stroke-width="3"/>
  <path d="M26 18V78" stroke="#22D3EE" stroke-opacity=".35" stroke-width="3"/>
  <path d="M70 18V78" stroke="#D946EF" stroke-opacity=".35" stroke-width="3"/>
  <path d="M23 30H14M23 42H14M23 54H14M23 66H14" stroke="#E0F2FE" stroke-opacity=".75" stroke-width="4" stroke-linecap="round"/>
  <path d="M82 30H73M82 42H73M82 54H73M82 66H73" stroke="#F5D0FE" stroke-opacity=".75" stroke-width="4" stroke-linecap="round"/>
  <circle cx="48" cy="48" r="19" fill="url(#orb)" opacity=".95"/>
  <path d="M43 38.5C43 36.96 44.67 36 46 36.77L59.5 44.56C60.83 45.33 60.83 47.25 59.5 48.02L46 55.81C44.67 56.58 43 55.62 43 54.08V38.5Z" fill="white"/>
  <path d="M31 24L33.25 28.75L38 31L33.25 33.25L31 38L28.75 33.25L24 31L28.75 28.75L31 24Z" fill="#67E8F9"/>
  <path d="M67 58L68.8 61.2L72 63L68.8 64.8L67 68L65.2 64.8L62 63L65.2 61.2L67 58Z" fill="#F0ABFC"/>
  <defs>
    <linearGradient id="bg" x1="10" y1="10" x2="86" y2="86" gradientUnits="userSpaceOnUse">
      <stop stop-color="#22D3EE"/>
      <stop offset=".52" stop-color="#6366F1"/>
      <stop offset="1" stop-color="#D946EF"/>
    </linearGradient>
    <linearGradient id="stroke" x1="14" y1="18" x2="82" y2="78" gradientUnits="userSpaceOnUse">
      <stop stop-color="#67E8F9"/>
      <stop offset="1" stop-color="#F0ABFC"/>
    </linearGradient>
    <radialGradient id="orb" cx="0" cy="0" r="1" gradientUnits="userSpaceOnUse" gradientTransform="translate(43 40) rotate(52) scale(31)">
      <stop stop-color="#FDF4FF"/>
      <stop offset=".38" stop-color="#22D3EE"/>
      <stop offset="1" stop-color="#A21CAF"/>
    </radialGradient>
  </defs>
</svg>
